<svg width="38" height="38" viewBox="0 0 38 38" fill="none" xmlns="http://www.w3.org/2000/svg">
<path d="M34.4286 16.428C35.8467 16.428 37 15.2747 37 13.8565V12.0526C37 11.105 36.4819 10.2371 35.6461 9.78841L19.6094 1.15333C19.2301 0.948891 18.7711 0.948891 18.3919 1.15333L2.35386 9.78841C1.51943 10.2371 1 11.105 1 12.0526V13.8565C1 15.2747 2.15329 16.428 3.57143 16.428H4.85714V29.2855H3.57143C2.15329 29.2855 1 30.4388 1 31.857V34.4285C1 35.8467 2.15329 37 3.57143 37H34.4286C35.8467 37 37 35.8467 37 34.4285V31.857C37 30.4388 35.8467 29.2855 34.4286 29.2855H33.1429V16.428H34.4286ZM3.57143 12.0526L19 3.7454L34.4286 12.0526V13.8565H3.57143V12.0526ZM20.2857 29.2855V16.428H24.1429V29.2855H20.2857ZM13.8571 29.2855V16.428H17.7143V29.2855H13.8571ZM7.42857 16.428H11.2857V29.2855H7.42857V16.428ZM34.4299 34.4285H3.57143V31.857H34.4286L34.4299 34.4285ZM30.5727 29.2855H26.7156V16.428H30.5727V29.2855Z" fill="#82A256"/>
</svg>
